<?xml version="1.0" encoding="iso-8859-1"?>
<!-- Generator: Adobe Illustrator 19.1.1, SVG Export Plug-In . SVG Version: 6.00 Build 0)  -->
<svg version="1.1" id="Layer_1" xmlns="http://www.w3.org/2000/svg" xmlns:xlink="http://www.w3.org/1999/xlink" x="0px" y="0px"
	 viewBox="0 0 48 48" style="enable-background:new 0 0 48 48;" xml:space="preserve">
<path style="fill:#F44336;" d="M10,26c-0.067-0.081-3-2.456-3-6c0-4.191,5.878-16,17.093-16C35.187,4,41,15.84,41,20
	c0,3.799-2.837,5.815-3,6h-2c0,0,1.625-10-12-10S12,26,12,26H10z"/>
<path style="fill:#FFA726;" d="M11.421,35c-0.088,0-0.179-0.001-0.273-0.003L11,34.996c-2.528,0-5-3.581-5-7c0-2.626,1.509-4,3-4
	c1.18,0,3.053,0.576,4.449,2.199l0.271,0.317l-0.746,8.231l-0.687,0.18C12.05,34.986,11.762,35,11.421,35z M35.712,34.924
	l-0.687-0.18l-0.746-8.231l0.271-0.317c1.396-1.623,3.27-2.199,4.449-2.199c1.491,0,3,1.374,3,4c0,3.419-2.472,7-5,7l-0.147,0.001
	C36.758,34.999,36.667,35,36.579,35C36.238,35,35.95,34.986,35.712,34.924z"/>
<path style="fill:#F57F17;" d="M12,29.5c0,0.828-0.672,1.5-1.5,1.5S9,30.328,9,29.5S9.672,28,10.5,28S12,28.672,12,29.5z M36,29.5
	c0,0.828,0.672,1.5,1.5,1.5s1.5-0.672,1.5-1.5S38.328,28,37.5,28S36,28.672,36,29.5z"/>
<circle style="fill:#FFFFFF;" cx="24" cy="12" r="5"/>
<path style="fill:#F44336;" d="M21.425,12.933c0,0-1.388-0.7-1.425-0.8c-0.036-0.101,2.338-4.1,2.338-4.1L23.982,9.6L25.699,8
	L28,12.133L26.575,13l-1.132-3.333l-1.388,1.567l-1.535-1.6L21.425,12.933z"/>
<path style="fill:#FFB74D;" d="M24,44c-2.726,0-4.058-0.804-5.346-1.581c-0.344-0.207-0.698-0.422-1.098-0.63
	c-0.215-0.113-0.475-0.229-0.763-0.356C14.729,40.509,11,38.432,11,33c0-1.112,0.169-2.447,0.419-3.94C11.593,28.02,12,26.434,12,26
	c0-0.717-0.493-3.789-1-5l0,0c0,0,3.417-5,13-5s12,5,12,5h1c-0.507,1.211-1,4.283-1,5c0,0.434,0.406,2.02,0.58,3.06
	C36.83,30.553,37,31.888,37,33c0,5.432-3.73,7.509-5.796,8.433c-0.287,0.129-0.547,0.244-0.762,0.356
	c-0.399,0.208-0.755,0.423-1.099,0.631C28.057,43.196,26.725,44,24,44z"/>
<path style="fill:#FFFFFF;" d="M29,24c1.105,0,2,1.119,2,2.5S30.105,29,29,29s-2-1.119-2-2.5S27.895,24,29,24z M21,26.5
	c0,1.381-0.895,2.5-2,2.5s-2-1.119-2-2.5s0.895-2.5,2-2.5S21,25.119,21,26.5z"/>
<path style="fill:#2196F3;" d="M28.5,25c0.828,0,1.5,0.895,1.5,2s-0.672,2-1.5,2S27,28.105,27,27S27.672,25,28.5,25z M21,27
	c0,1.105-0.672,2-1.5,2S18,28.105,18,27s0.672-2,1.5-2S21,25.895,21,27z"/>
<path style="fill:#263238;" d="M28,26c0.552,0,1,0.672,1,1.5S28.552,29,28,29s-1-0.672-1-1.5S27.448,26,28,26z M21,27.5
	c0,0.828-0.448,1.5-1,1.5s-1-0.672-1-1.5s0.448-1.5,1-1.5S21,26.672,21,27.5z"/>
<path style="fill:#263238;" d="M33,23c0,0-0.608-0.245-1.338-0.575c-0.375-0.148-0.785-0.32-1.154-0.404
	c-0.179-0.033-0.35-0.06-0.467-0.041l-0.023,0l-0.012,0l-0.003,0l-0.001,0c0.035-0.001-0.079,0.003,0.077-0.003l-0.013,0.002
	l-0.102,0.015l-0.206,0.022c-0.159,0.01-0.146,0.054-0.23,0.059c-0.149,0.04-0.359,0.119-0.547,0.2
	c-0.194,0.088-0.391,0.19-0.59,0.298c-0.394,0.219-0.781,0.465-1.135,0.676C26.566,23.689,26,24,26,24s-0.004-0.658,0.394-1.488
	c0.19-0.42,0.479-0.882,0.901-1.315c0.208-0.219,0.458-0.422,0.739-0.606c0.29-0.185,0.593-0.332,0.978-0.446
	c0.188-0.048,0.466-0.107,0.585-0.108l0.207-0.012l0.103-0.002l0.013,0l0.084-0.003l0.005,0l0.01,0.001l0.04,0.004l0.079,0.008
	c0.435,0.029,0.782,0.188,1.085,0.346c0.584,0.345,0.958,0.773,1.21,1.172C32.948,22.338,33,23,33,23z M21.915,23.594
	c-0.07-0.252-0.19-0.607-0.395-1.008c-0.095-0.207-0.228-0.41-0.375-0.629c-0.143-0.222-0.317-0.443-0.521-0.658
	c-0.407-0.425-0.94-0.853-1.637-1.091c-0.364-0.125-0.688-0.181-1.153-0.186l-0.214,0.013c-0.116,0.018-0.232,0.038-0.346,0.064
	c-0.225,0.061-0.364,0.123-0.533,0.197c-0.616,0.316-1.005,0.752-1.263,1.155c-0.253,0.411-0.38,0.793-0.433,1.081
	C14.986,22.814,15,23,15,23s0.182-0.037,0.442-0.122c0.268-0.078,0.613-0.21,0.986-0.352c0.368-0.145,0.764-0.308,1.101-0.422
	c0.073-0.021,0.181-0.061,0.217-0.063c0.017-0.003,0.033-0.013,0.049-0.026l0.193-0.024c0.082-0.022,0.314-0.005,0.487,0.02
	c0.766,0.13,1.69,0.703,2.356,1.163C21.501,23.647,22,24,22,24S21.976,23.853,21.915,23.594z M33.999,33.436
	c0,1.296-1.073,2.301-1.888,2.301c-0.252,1.565-1.245,2.23-2.247,2.23s-1.528-0.353-1.528-0.353s-1.016,1.352-2.338,1.352
	c-1.166,0-2.021-0.592-2.021-0.592S23.205,39,22.111,39c-1.407,0-2.331-1.296-2.447-1.409c-0.067,0.031-0.583,0.38-1.47,0.38
	c-2.051,0-2.265-2.208-2.265-2.208s-1.931-0.116-1.931-2.395c0-1.934,0.605-2.369,0.605-2.369s0.346,1.416,4.246,2.099
	c0.471,1.929,2.596,3.386,5.149,3.386c2.551,0,4.674-1.453,5.148-3.38c2.079-0.355,3.475-1.005,4.269-2.081
	C33.417,31.023,33.999,31.492,33.999,33.436z"/>
<path style="fill:#FFD49C;" d="M24,37c-3.309,0-6-2.243-6-5s2.691-5,6-5s6,2.243,6,5S27.309,37,24,37z"/>
<path style="fill:#795548;" d="M37,22c0,0-0.119,9.03-0.052,9.886C35.702,28.862,34,28,34,28v-6H37z M11,22
	c0,0,0.119,9.03,0.052,9.886C12.298,28.862,14,28,14,28v-6H11z"/>
<path style="fill:#FF8A80;" d="M24,13c-11.008,0-14,6.061-14,7c0,1.824,1,3,1,3c1.5,2.313,3,0,3,0c0.044-0.04,3.146-4,10-4
	s9.956,3.96,10,4c0,0,1.5,2.313,3,0c0,0,1-1.176,1-3C38,19.061,35.008,13,24,13z"/>
</svg>
