<?xml version="1.0" encoding="iso-8859-1"?>
<!-- Generator: Adobe Illustrator 19.1.1, SVG Export Plug-In . SVG Version: 6.00 Build 0)  -->
<svg version="1.1" id="Layer_1" xmlns="http://www.w3.org/2000/svg" xmlns:xlink="http://www.w3.org/1999/xlink" x="0px" y="0px"
	 viewBox="0 0 48 48" style="enable-background:new 0 0 48 48;" xml:space="preserve">
<g>
	<g>
		<path style="fill:#AB47BC;" d="M37,42H13c-0.553,0-1-0.447-1-1c0-0.319,0.149-0.604,0.383-0.787
			c0.303-0.736,0.781-3.503,1.207-5.96c0.284-1.645,0.599-3.463,0.953-5.302c-0.404,0.083-0.811,0.337-1.213,0.43
			C12.162,29.652,10.959,29.988,10,30c-0.54,0.007-1.002-0.088-1.338-0.355C8.36,29.405,8,28.953,8,28.16
			c0-1.892,2.67-3.588,4.999-5.121c1.422-0.937,3.19-2.26,3.444-3.041c0.025-0.077,0.052-0.146,0.08-0.207
			C19.19,8.724,21.709,4,24.937,4c2.926,0,5.314,4.01,7.706,12.969c2.029-0.551,2.953-2.29,3.466-3.266C36.48,12.995,37.06,12,38,12
			c0.36,0,2,0.329,2,3c0,3.075-2.777,7.817-5.545,9.648c0.579,2.741,1.092,5.547,1.548,8.045c0.571,3.131,1.215,6.658,1.593,7.503
			C37.841,40.379,38,40.671,38,41C38,41.553,37.553,42,37,42z"/>
	</g>
</g>
<path style="fill:#558B2F;" d="M25,31c2.761,0,5,1.343,5,3s-2.239,3-5,3s-5-1.343-5-3S22.239,31,25,31z M25,22
	c2.209,0,4,1.119,4,2.5S27.209,27,25,27s-4-1.119-4-2.5S22.791,22,25,22z M25,14c1.657,0,3,0.895,3,2s-1.343,2-3,2s-3-0.895-3-2
	S23.343,14,25,14z"/>
<path style="fill:#6A1B9A;" d="M40,15c0,3.075-2.777,7.817-5.545,9.648L33,19C33,19,37.844,20.563,40,15z M16,23
	c0,0-6.099,8.193-7.988,5.018C8.009,28.065,8,28.112,8,28.16c0,0.793,0.36,1.245,0.662,1.485C8.998,29.912,9.46,30.007,10,30
	c0.959-0.013,2.162-0.348,3.33-0.618c0.401-0.094,0.808-0.347,1.213-0.43L16,23z"/>
<path style="fill:#8BC34A;" d="M25,38c-3.364,0-6-1.757-6-4s2.636-4,6-4s6,1.757,6,4S28.364,38,25,38z M25,32c-2.289,0-4,1.056-4,2
	s1.711,2,4,2s4-1.056,4-2S27.289,32,25,32z M25,28c-2.804,0-5-1.537-5-3.5s2.196-3.5,5-3.5s5,1.537,5,3.5S27.804,28,25,28z M25,23
	c-1.717,0-3,0.792-3,1.5s1.283,1.5,3,1.5s3-0.792,3-1.5S26.717,23,25,23z M25,19c-2.243,0-4-1.317-4-3s1.757-3,4-3s4,1.317,4,3
	S27.243,19,25,19z M25,15c-1.221,0-2,0.592-2,1s0.779,1,2,1s2-0.592,2-1S26.221,15,25,15z M40,42L40,42c0-1.1-0.9-2-2-2H12
	c-1.1,0-2,0.9-2,2v0c0,1.1,0.9,2,2,2h26C39.1,44,40,43.1,40,42z"/>
<path style="fill:none;stroke:#000000;stroke-width:2;stroke-linecap:round;stroke-linejoin:round;stroke-miterlimit:10;" d="M30,14
	c0,0-1.136-2-2-2c-1.814,0-2.136,1-3,1s-1.186-1-3-1c-0.864,0-2,2-2,2"/>
</svg>
